<svg aria-hidden="true" style="position: absolute; width: 0; height: 0; overflow: hidden;" version="1.1" xmlns="http://www.w3.org/2000/svg" xmlns:xlink="http://www.w3.org/1999/xlink">
<defs>
<symbol id="icon-paper-plane" viewBox="0 0 20 20">
<title>paper-plane</title>
<path d="M18.64 2.634c-0.344 0.121-17.321 6.104-17.656 6.222-0.284 0.1-0.347 0.345-0.010 0.479 0.401 0.161 3.796 1.521 3.796 1.521v0l2.25 0.901c0 0 10.838-7.958 10.984-8.066 0.148-0.108 0.318 0.095 0.211 0.211s-7.871 8.513-7.871 8.513v0.002l-0.452 0.503 0.599 0.322c0 0 4.65 2.504 4.982 2.682 0.291 0.156 0.668 0.027 0.752-0.334 0.099-0.426 2.845-12.261 2.906-12.525 0.079-0.343-0.148-0.552-0.491-0.431zM7 17.162c0 0.246 0.139 0.315 0.331 0.141 0.251-0.229 2.85-2.561 2.85-2.561l-3.181-1.644v4.064z"></path>
</symbol>
<symbol id="icon-check" viewBox="0 0 20 20">
<title>check</title>
<path d="M8.294 16.998c-0.435 0-0.847-0.203-1.111-0.553l-3.573-4.721c-0.465-0.613-0.344-1.486 0.27-1.951 0.615-0.467 1.488-0.344 1.953 0.27l2.351 3.104 5.911-9.492c0.407-0.652 1.267-0.852 1.921-0.445s0.854 1.266 0.446 1.92l-6.984 11.21c-0.242 0.391-0.661 0.635-1.12 0.656-0.022 0.002-0.042 0.002-0.064 0.002z"></path>
</symbol>
<symbol id="icon-star-full" viewBox="0 0 32 32">
<title>star-full</title>
<path d="M32 12.408l-11.056-1.607-4.944-10.018-4.944 10.018-11.056 1.607 8 7.798-1.889 11.011 9.889-5.199 9.889 5.199-1.889-11.011 8-7.798z"></path>
</symbol>
<symbol id="icon-arrow-right2" viewBox="0 0 32 32">
<title>arrow-right2</title>
<path d="M19.414 27.414l10-10c0.781-0.781 0.781-2.047 0-2.828l-10-10c-0.781-0.781-2.047-0.781-2.828 0s-0.781 2.047 0 2.828l6.586 6.586h-19.172c-1.105 0-2 0.895-2 2s0.895 2 2 2h19.172l-6.586 6.586c-0.39 0.39-0.586 0.902-0.586 1.414s0.195 1.024 0.586 1.414c0.781 0.781 2.047 0.781 2.828 0z"></path>
</symbol>
<symbol id="icon-arrow-down2" viewBox="0 0 32 32">
<title>arrow-down2</title>
<path d="M27.414 19.414l-10 10c-0.781 0.781-2.047 0.781-2.828 0l-10-10c-0.781-0.781-0.781-2.047 0-2.828s2.047-0.781 2.828 0l6.586 6.586v-19.172c0-1.105 0.895-2 2-2s2 0.895 2 2v19.172l6.586-6.586c0.39-0.39 0.902-0.586 1.414-0.586s1.024 0.195 1.414 0.586c0.781 0.781 0.781 2.047 0 2.828z"></path>
</symbol>
<symbol id="icon-telegram" viewBox="0 0 32 32">
<title>telegram</title>
<path d="M16 0c-8.838 0-16 7.162-16 16s7.162 16 16 16 16-7.163 16-16-7.163-16-16-16zM23.863 10.969l-2.625 12.369c-0.181 0.881-0.712 1.087-1.45 0.681l-4-2.956-1.919 1.869c-0.225 0.219-0.4 0.4-0.8 0.4-0.519 0-0.431-0.194-0.606-0.688l-1.363-4.475-3.956-1.231c-0.856-0.262-0.862-0.85 0.194-1.269l15.412-5.95c0.7-0.319 1.381 0.169 1.113 1.25z"></path>
</symbol>
<symbol id="icon-twitter" viewBox="0 0 32 32">
<title>twitter</title>
<path d="M32 7.075c-1.175 0.525-2.444 0.875-3.769 1.031 1.356-0.813 2.394-2.1 2.887-3.631-1.269 0.75-2.675 1.3-4.169 1.594-1.2-1.275-2.906-2.069-4.794-2.069-3.625 0-6.563 2.938-6.563 6.563 0 0.512 0.056 1.012 0.169 1.494-5.456-0.275-10.294-2.888-13.531-6.862-0.563 0.969-0.887 2.1-0.887 3.3 0 2.275 1.156 4.287 2.919 5.463-1.075-0.031-2.087-0.331-2.975-0.819 0 0.025 0 0.056 0 0.081 0 3.181 2.263 5.838 5.269 6.437-0.55 0.15-1.131 0.231-1.731 0.231-0.425 0-0.831-0.044-1.237-0.119 0.838 2.606 3.263 4.506 6.131 4.563-2.25 1.762-5.075 2.813-8.156 2.813-0.531 0-1.050-0.031-1.569-0.094 2.913 1.869 6.362 2.95 10.069 2.95 12.075 0 18.681-10.006 18.681-18.681 0-0.287-0.006-0.569-0.019-0.85 1.281-0.919 2.394-2.075 3.275-3.394z"></path>
</symbol>
<symbol id="icon-yelp" viewBox="0 0 32 32">
<title>yelp</title>
<path d="M19.027 20.421c-0.54 0.545-0.083 1.535-0.083 1.535l4.065 6.788c0 0 0.668 0.895 1.246 0.895 0.581 0 1.155-0.477 1.155-0.477l3.214-4.594c0 0 0.324-0.58 0.331-1.087 0.012-0.722-1.077-0.92-1.077-0.92l-7.609-2.444c-0 0-0.746-0.198-1.242 0.303zM18.642 17c0.389 0.66 1.463 0.468 1.463 0.468l7.592-2.219c0 0 1.035-0.421 1.182-0.982 0.145-0.561-0.171-1.238-0.171-1.238l-3.628-4.274c0 0-0.314-0.54-0.967-0.595-0.719-0.061-1.162 0.809-1.162 0.809l-4.29 6.75c0 0-0.379 0.672-0.020 1.28zM15.055 14.368c0.894-0.22 1.036-1.519 1.036-1.519l-0.061-10.808c0 0-0.135-1.333-0.734-1.695-0.94-0.57-1.218-0.272-1.487-0.233l-6.303 2.342c0 0-0.617 0.204-0.939 0.719-0.459 0.73 0.466 1.798 0.466 1.798l6.551 8.93c0 0 0.647 0.669 1.47 0.465zM13.498 18.742c0.023-0.834-1.001-1.334-1.001-1.334l-6.775-3.423c0 0-1.004-0.414-1.491-0.126-0.373 0.221-0.704 0.62-0.737 0.973l-0.441 5.432c0 0-0.066 0.941 0.178 1.369 0.345 0.608 1.482 0.184 1.482 0.184l7.909-1.748c0.307-0.207 0.846-0.225 0.876-1.328zM15.465 21.673c-0.679-0.349-1.491 0.373-1.491 0.373l-5.296 5.83c0 0-0.661 0.892-0.493 1.439 0.158 0.513 0.42 0.768 0.791 0.948l5.319 1.679c0 0 0.645 0.134 1.133-0.008 0.693-0.201 0.565-1.286 0.565-1.286l0.12-7.894c-0 0-0.027-0.76-0.648-1.082z"></path>
</symbol>
</defs>

<symbol id="icon-x" viewBox="0 0 24 24">
<title>x</title>
<path d="M5.293 6.707l5.293 5.293-5.293 5.293c-0.391 0.391-0.391 1.024 0 1.414s1.024 0.391 1.414 0l5.293-5.293 5.293 5.293c0.391 0.391 1.024 0.391 1.414 0s0.391-1.024 0-1.414l-5.293-5.293 5.293-5.293c0.391-0.391 0.391-1.024 0-1.414s-1.024-0.391-1.414 0l-5.293 5.293-5.293-5.293c-0.391-0.391-1.024-0.391-1.414 0s-0.391 1.024 0 1.414z"></path>
</symbol>

<symbol id="icon-facebook" viewBox="0 0 32 32">
<title>facebook</title>
<path d="M19 6h5v-6h-5c-3.86 0-7 3.14-7 7v3h-4v6h4v16h6v-16h5l1-6h-6v-3c0-0.542 0.458-1 1-1z"></path>
</symbol>
</svg>
